<svg xmlns="http://www.w3.org/2000/svg" xmlns:xlink="http://www.w3.org/1999/xlink" version="1.1" x="0px" y="0px" viewBox="0 0 100 100" enable-background="new 0 0 100 100" xml:space="preserve"><path fill="#000000" d="M23.742,82.457c-0.345,0.909-0.597,1.753-1.145,3.832c-0.713,2.713-0.775,2.85-1.87,3.993  c-1.421,1.488-2.498,2.184-4.989,3.216c-1.279,0.529-1.833,0.838-2.239,1.231c-0.547,0.529-0.757,1.039-0.837,2  c-0.092,1.162,0.56,2.109,1.944,2.822c0.289,0.147,0.701,0.319,0.923,0.376c0.189,0.05,0.369,0.072,0.523,0.072  c0.311,0,0.522-0.095,0.522-0.263c0-0.049-0.289-0.394-0.639-0.77c-0.893-0.941-1.107-1.438-0.874-2.055  c0.191-0.486,1.034-1.15,2.036-1.6c0.48-0.216,3.303-1.341,3.937-1.575c0.749-0.274,1.299-0.414,1.756-0.414  c0.517,0,0.917,0.178,1.351,0.545l0.295,0.245l6.016-0.013l6.023-0.018l-0.019-0.463c-0.056-1.198-0.369-1.438-1.999-1.531  c-0.462-0.024-0.861-0.061-0.874-0.079c-0.055-0.05,0.185-0.615,0.584-1.403c0.713-1.397,1.691-2.725,2.251-3.052  c0.189-0.109,0.274-0.146,0.5-0.146c0.075,0,0.166,0.006,0.281,0.012c0.579,0.03,0.904,0.166,1.2,0.505  c0.246,0.281,0.313,0.516,0.412,1.458c0.062,0.57,0.129,0.897,0.271,1.255c0.696,1.8,2.762,3.789,3.935,3.789  c0.009,0,0.018,0,0.026,0c0.4-0.006,0.578-0.131,0.8-0.56c0.197-0.388,0.222-0.824,0.068-1.127  c-0.056-0.109-0.375-0.479-0.701-0.824c-1.458-1.513-1.907-2.713-1.907-5.1c0-2.423,0.474-4.202,1.514-5.666  c0.147-0.21,0.646-0.788,1.107-1.291c1.47-1.606,1.759-2.227,1.759-3.771c-0.006-0.893-0.067-1.365-0.326-2.325  c-0.437-1.654-0.29-2.454,0.633-3.488c0.628-0.707,0.683-0.953,0.461-2.129c-0.246-1.286-0.338-1.851-0.468-2.976  c-0.166-1.416-0.289-1.73-0.726-1.914c-0.124-0.055-0.25-0.081-0.379-0.081c-0.153,0-0.309,0.038-0.469,0.111  c-0.148,0.068-0.536,0.412-0.966,0.854c-0.818,0.85-1.212,1.139-1.741,1.274c-0.228,0.057-0.446,0.089-0.671,0.089  c-0.614,0-1.288-0.23-2.399-0.784c-0.879-0.437-1.101-0.529-1.354-0.529c-0.028,0-0.054,0-0.078,0c-0.208,0-0.254,0.032-0.365,0.196  c-0.179,0.259-0.24,0.739-0.185,1.452c0.049,0.78,0.208,1.433,0.713,2.966c0.492,1.502,0.622,2.029,0.634,2.607  c0.012,0.579-0.117,0.961-0.412,1.261c-0.338,0.333-0.634,0.426-2.16,0.678c-2.35,0.393-3.87,0.843-5.315,1.563  C27.248,76.349,25.089,78.901,23.742,82.457z"></path><path fill="#000000" d="M58.024,57.882l-1.457-5.056c-0.084-0.287-0.028-0.596,0.146-0.836c0.174-0.241,0.449-0.389,0.748-0.4  l9.23-0.344l7.228-17.731h7.052c1.745,0,3.171-1.406,3.171-3.173c0-1.13-0.616-2.13-1.509-2.685l-10.822-5.794  c-0.321-0.17-0.701-0.256-1.043-0.277l-4.602,0.021c-0.446-0.554-0.854-1.214-1.15-1.853c-0.34-0.724-0.192-1.598,0.405-2.215  c0.386-0.384,0.894-0.554,1.404-0.554h7.99c1.065,0,1.939-0.873,1.939-1.959c0-1.065-0.875-1.939-1.939-1.939H66.74  c-0.979,0-1.873,0.235-2.662,0.683c0.64-5.539,5.369-9.841,11.077-9.841c1.087,0,1.959-0.916,1.959-1.981  c0-1.086-0.872-1.96-1.959-1.96c-8.349,0-15.123,6.774-15.125,15.104c0,2.364,0.555,4.601,1.511,6.604l-3.853-0.021  c-0.448,0-0.81,0.362-0.81,0.831c0,0.235,0.106,0.448,0.276,0.597l5.282,5.26l-6.369,9.798H15.959c-3.173,0-5.814,2.62-5.963,5.772  v16.042c0,0.255,0.213,0.446,0.447,0.446c0.191,0,0.361-0.108,0.426-0.28l2.961-4.62v7.199l-3.812,6.05l0.021,15.913  c0,2.257,1.831,4.066,4.069,4.066c2.257,0,4.089-1.81,4.089-4.066V69.662l4.622-6.198v7.071l3.489,5.985  c0.993-1.01,2.114-1.841,3.375-2.473c1.16-0.576,2.368-0.99,3.938-1.335l-3.453-6.012l3.686-5.601h16.381v23.877  c0,2.236,1.811,4.068,4.067,4.068c2.26,0,4.09-1.83,4.09-4.068V62.782L61,60.173c-1.37-1.042-2.51-1.709-2.529-1.723  C58.254,58.325,58.095,58.121,58.024,57.882z"></path><path fill="#000000" d="M65.035,62.649l-6.407,30.873c-1.658,0.613-2.091,2.296-2.091,2.296h2.278c0-2.381,3.62-3.387,3.669-3.387  c0.004,0,0.01,0,0.016,0l3.771-11.447l1.523,5.155c2.692-3.656,7.75-4.741,7.75-4.741l0.688,1.238  c-4.417,1.333-6.603,3.46-7.684,5.256c-0.263,0.438-0.492,0.931-0.679,1.44c-0.02,0.052-0.04,0.139-0.055,0.189  c-0.012,0.028-0.02,0.127-0.028,0.157c-0.316,0.982-0.299,1.784-0.299,1.784h-0.08c-0.051,0-0.081,0.667-0.081,1.097  c0,0-7.06,0.535-7.06,3.258h11.845h9.003h5.659c0,0,1.614-0.781,2.433-1.793c2.05-2.525,1.278-6.969,1.278-6.969  c-1.941,2.727-3.882,3.937-4.929,4.434l-5.738-17.737L69.166,48.27l-0.707,3.878l-10.962,0.408l1.458,5.057  C58.955,57.613,62.777,59.827,65.035,62.649z"></path><g><path fill="#000000" d="M22.911,11.586c-0.105-0.018-0.22-0.027-0.341-0.027c-0.6,0-1.387,0.23-2.167,0.538   c-0.533-2.512-4.845-8.016-4.845-8.594c7.741-0.65,12.453,9.831,12.77,10.366c-0.003,0.099-0.042,0.19-0.099,0.275   c-0.541,0.268-1.129,0.346-1.459,0.366C26.098,13.739,24.281,11.789,22.911,11.586z"></path><path fill="#000000" d="M22.815,12.193c1.384,0.198,3.676,2.937,3.676,2.937s0.023,0.001,0.066,0.001   c0.374,0,2.208-0.07,3.069-1.411c0.057-0.707-1.723-2.287,1.777-2.739c1.51-0.339,8.874-3.928,10.06-5.764   c4.859,11.187-5.706,12.797-5.706,12.797s-0.198,0.734-0.594,1.159c-0.132,0.142-0.437,0.188-0.785,0.188   c-0.664,0-1.483-0.171-1.554-0.187c0.12,0.046,2.056,0.764,2.96,0.846c0.068,0.006,0.167,0.009,0.292,0.009   c1.61,0,7.59-0.461,7.59-0.461c-1.439,4.771-4.662,6.028-7.655,6.028c-3.33,0-6.375-1.553-6.375-1.553l2.618-0.689   c0,0-3.417-0.133-4.521-0.48c-5.35-1.689-5.96-5.876-5.96-5.876s-0.098-1.954-4.068-2.854c0.401-0.303,3.427-1.97,4.865-1.97   C22.658,12.174,22.74,12.18,22.815,12.193z"></path></g></svg>